<svg width="196.3" height="74.2" viewBox="0 0 196.3 74.2" xmlns="http://www.w3.org/2000/svg"><g id="svgGroup" stroke-linecap="round" fill-rule="evenodd" font-size="9pt" stroke="#000" stroke-width="0.25mm" fill="#000" style="stroke:#000;stroke-width:0.25mm;fill:#000"><path d="M 70.1 56.5 L 69.5 56.9 Q 66.8 61.7 63.25 65.8 Q 60.35 69.149 58.351 70.897 A 18.322 18.322 0 0 1 57.5 71.6 L 55.3 73.3 A 7.067 7.067 0 0 1 54.853 73.673 Q 54.405 74.013 54.055 74.134 A 1.096 1.096 0 0 1 53.7 74.2 A 1.85 1.85 0 0 1 53.088 74.105 Q 52.563 73.922 52.285 73.385 A 2.08 2.08 0 0 1 52.2 73.2 Q 50.16 69.306 47.519 58.622 A 248.809 248.809 0 0 1 47.1 56.9 L 46.2 52.8 A 171.297 171.297 0 0 0 45.008 47.642 Q 43.691 42.344 42.35 38.7 Q 40.815 34.528 39.869 33.082 A 3.022 3.022 0 0 0 39.4 32.5 L 38.4 31.6 A 2.069 2.069 0 0 1 38.028 31.438 Q 37.5 31.136 37.5 30.6 Q 37.5 29.2 41.65 27.6 Q 45.055 26.287 47.215 26.052 A 8.187 8.187 0 0 1 48.1 26 A 4.369 4.369 0 0 1 49.257 26.142 Q 50.608 26.513 51.15 27.85 A 10.26 10.26 0 0 1 51.461 28.778 Q 52.2 31.294 53.5 38.2 A 459.29 459.29 0 0 0 54.514 43.45 Q 57.821 60.016 59.485 60.58 A 0.358 0.358 0 0 0 59.6 60.6 Q 60.09 60.6 60.679 59.901 A 5.542 5.542 0 0 0 60.95 59.55 A 239.297 239.297 0 0 0 61.555 58.699 Q 61.824 58.318 62.123 57.894 A 473.259 473.259 0 0 0 62.75 57 Q 63.8 55.5 65.6 51.8 A 22.567 22.567 0 0 0 66.625 49.363 Q 67.061 48.111 67.252 46.982 A 10.101 10.101 0 0 0 67.4 45.3 A 2.357 2.357 0 0 0 67.376 45.019 Q 67.288 44.355 66.889 42.512 A 158.343 158.343 0 0 0 66.7 41.65 Q 66 38.5 64.65 35.55 Q 63.3 32.6 62.5 32.2 A 10.851 10.851 0 0 1 61.888 31.836 Q 60.7 31.069 60.7 30.5 A 1.054 1.054 0 0 1 60.973 29.851 Q 61.757 28.875 64.8 27.65 A 26.468 26.468 0 0 1 67.881 26.613 Q 69.468 26.192 70.914 26.06 A 14.186 14.186 0 0 1 72.2 26 A 1.907 1.907 0 0 1 73.83 26.841 Q 74.11 27.231 74.3 27.8 A 47.274 47.274 0 0 1 75.087 30.616 Q 76.268 35.322 77.757 43.873 A 436.287 436.287 0 0 1 77.9 44.7 Q 80.168 57.803 82.154 59.901 A 1.062 1.062 0 0 0 82.9 60.3 Q 83.7 60.3 85.3 58.05 A 16.601 16.601 0 0 0 86.369 56.307 Q 87.353 54.481 88.317 51.864 A 54.803 54.803 0 0 0 88.45 51.5 A 33.197 33.197 0 0 0 89.333 48.692 Q 90 46.152 90 44.15 Q 90 41.636 89.83 40.073 A 14.969 14.969 0 0 0 89.75 39.45 A 6.188 6.188 0 0 0 89.409 38.193 Q 88.963 37.014 88.008 35.611 A 19.349 19.349 0 0 0 88 35.6 A 8.237 8.237 0 0 0 87.024 34.406 Q 86.397 33.781 85.712 33.43 A 4.043 4.043 0 0 0 84.6 33.05 Q 83.428 32.834 82.979 32.409 A 0.816 0.816 0 0 1 82.7 31.8 A 1.435 1.435 0 0 1 82.989 31.006 Q 83.636 30.053 85.736 28.82 A 29.406 29.406 0 0 1 86.85 28.2 A 18.562 18.562 0 0 1 92.945 26.174 A 17.333 17.333 0 0 1 95.4 26 A 3.354 3.354 0 0 1 98.534 28.067 Q 99.363 29.7 99.547 32.621 A 28.277 28.277 0 0 1 99.6 34.4 Q 99.6 44.9 93.4 56 A 59.003 59.003 0 0 1 86.784 65.604 A 45.544 45.544 0 0 1 78.4 73.3 Q 77.411 73.992 76.911 74 A 0.725 0.725 0 0 1 76.9 74 A 2.065 2.065 0 0 1 76.316 73.923 A 1.403 1.403 0 0 1 75.4 73.1 A 42.135 42.135 0 0 1 73.373 68.245 Q 72.527 65.84 71.784 63.004 A 100.174 100.174 0 0 1 70.4 56.9 Q 70.335 56.64 70.227 56.549 A 0.193 0.193 0 0 0 70.1 56.5 Z M 171 17.6 L 170.9 27.3 A 1.331 1.331 0 0 0 170.915 27.512 Q 170.975 27.882 171.271 27.899 A 0.505 0.505 0 0 0 171.3 27.9 A 1.159 1.159 0 0 0 171.775 27.794 Q 171.938 27.722 172.1 27.6 A 7.887 7.887 0 0 1 174.107 26.65 Q 176.09 26.006 179.017 25.915 A 31.797 31.797 0 0 1 180 25.9 A 20.729 20.729 0 0 1 184.676 26.391 Q 187.676 27.086 189.786 28.766 A 11.325 11.325 0 0 1 192.6 32.1 A 9.014 9.014 0 0 1 193.466 34.308 Q 193.737 35.367 193.839 36.623 A 19.527 19.527 0 0 1 193.9 38.2 Q 193.9 41.109 193.636 45.719 A 302.457 302.457 0 0 1 193.45 48.7 Q 193.036 54.87 193.003 57.733 A 40.902 40.902 0 0 0 193 58.2 Q 193 68 195.8 71.2 A 2.254 2.254 0 0 1 196.058 71.505 Q 196.185 71.687 196.245 71.869 A 1.048 1.048 0 0 1 196.3 72.2 A 0.567 0.567 0 0 1 195.972 72.676 Q 195.174 73.162 192.44 73.197 A 34.141 34.141 0 0 1 192 73.2 Q 182.139 73.2 180.661 65.396 A 16.113 16.113 0 0 1 180.4 62.4 Q 180.4 58.2 182.4 50.6 Q 183.939 44.754 184.294 41.274 A 18.648 18.648 0 0 0 184.4 39.4 A 12.227 12.227 0 0 0 184.221 37.239 Q 184.009 36.058 183.544 35.122 A 5.954 5.954 0 0 0 182.7 33.85 A 5.565 5.565 0 0 0 179.25 31.993 A 8.055 8.055 0 0 0 178 31.9 Q 175 31.9 173.25 33.2 A 8.604 8.604 0 0 0 172.29 34.021 Q 171.832 34.479 171.535 34.949 A 3.659 3.659 0 0 0 171.1 35.9 L 170.8 37.2 A 36.937 36.937 0 0 0 170.766 38.204 Q 170.712 40.514 170.702 46.529 A 1733.485 1733.485 0 0 0 170.7 49.3 A 327.044 327.044 0 0 0 170.724 53.42 Q 170.794 58.932 171.067 61.531 A 18.083 18.083 0 0 0 171.2 62.55 A 249.343 249.343 0 0 1 171.317 63.271 Q 171.7 65.65 171.7 66 A 4.465 4.465 0 0 1 170.71 68.758 Q 169.735 70.034 167.8 71.15 A 17.947 17.947 0 0 1 164.226 72.746 A 13.684 13.684 0 0 1 160.1 73.4 A 1.743 1.743 0 0 1 159.512 73.309 Q 158.743 73.034 158.702 71.925 A 3.444 3.444 0 0 1 158.7 71.8 L 158.9 69.9 Q 161.1 53.1 161.1 33.5 Q 161.1 25.9 160.5 18.1 L 160.4 15.9 A 16.478 16.478 0 0 0 160.082 13.603 Q 159.822 12.397 159.38 11.385 A 9.795 9.795 0 0 0 159.25 11.1 Q 158.3 9.1 157.5 8.5 L 156.6 8 Q 155.919 7.611 155.901 7.126 A 0.709 0.709 0 0 1 155.9 7.1 Q 155.9 5.942 159.117 4.339 A 32.205 32.205 0 0 1 160.6 3.65 Q 164.312 2.031 166.683 1.691 A 8.253 8.253 0 0 1 167.85 1.6 A 9.028 9.028 0 0 1 168.724 1.639 Q 170.346 1.797 170.578 2.606 A 0.962 0.962 0 0 1 170.6 2.7 Q 170.906 6.605 170.978 13.265 A 403.366 403.366 0 0 1 171 17.6 Z M 154.1 57.6 Q 154.1 61.9 152.45 65.1 A 18.074 18.074 0 0 1 151.206 67.181 Q 150.481 68.217 149.683 68.981 A 8.904 8.904 0 0 1 148.7 69.8 Q 146.6 71.3 143.7 72.2 A 28.704 28.704 0 0 1 140.509 73.02 Q 138.912 73.329 137.462 73.387 A 16.607 16.607 0 0 1 136.8 73.4 A 27.495 27.495 0 0 1 132.235 73.042 Q 128.688 72.444 126 70.85 A 8.336 8.336 0 0 1 121.878 64.849 A 12.438 12.438 0 0 1 121.7 62.7 A 9.92 9.92 0 0 1 121.975 60.305 A 7.217 7.217 0 0 1 123.5 57.3 A 9.797 9.797 0 0 1 126.135 55.195 A 8.471 8.471 0 0 1 130.2 54.2 Q 131.4 54.2 131.4 55.3 Q 131.4 55.387 131.057 56.505 A 129.338 129.338 0 0 1 130.95 56.85 Q 130.5 58.3 130.5 60.5 A 5.136 5.136 0 0 0 131.793 63.912 A 6.994 6.994 0 0 0 132.25 64.4 Q 134 66.1 136.5 66.1 A 11.974 11.974 0 0 0 138.084 66.002 Q 138.886 65.895 139.55 65.67 A 5.481 5.481 0 0 0 140.5 65.25 Q 142 64.4 142.6 63.1 A 9.473 9.473 0 0 0 143.199 61.617 Q 143.47 60.726 143.497 59.889 A 5.754 5.754 0 0 0 143.5 59.7 Q 143.5 56.8 140.6 54.7 Q 137.7 52.6 134.2 51.4 A 16.826 16.826 0 0 1 128.721 48.236 A 19.954 19.954 0 0 1 127.8 47.4 A 9.287 9.287 0 0 1 124.903 40.661 A 11.979 11.979 0 0 1 124.9 40.4 A 18.053 18.053 0 0 1 125.378 36.11 A 11.519 11.519 0 0 1 129.45 29.6 A 15.636 15.636 0 0 1 135.006 26.845 Q 137.268 26.211 139.959 26.053 A 31.346 31.346 0 0 1 141.8 26 A 27.243 27.243 0 0 1 146.413 26.409 A 33.259 33.259 0 0 1 148.95 26.95 A 10.383 10.383 0 0 1 150.365 27.409 Q 152.7 28.375 152.7 30.15 A 11.805 11.805 0 0 1 152.377 32.952 A 10.315 10.315 0 0 1 151.95 34.3 A 6.223 6.223 0 0 1 151.606 35.039 Q 150.96 36.2 150.1 36.2 A 1.227 1.227 0 0 1 149.802 36.166 A 0.709 0.709 0 0 1 149.3 35.75 A 2.967 2.967 0 0 0 149.127 35.423 Q 148.928 35.094 148.6 34.7 A 2.41 2.41 0 0 0 148.269 34.384 Q 147.633 33.866 146.2 33.15 A 12.158 12.158 0 0 0 145.066 32.649 Q 144.491 32.432 143.976 32.319 A 4.832 4.832 0 0 0 142.95 32.2 Q 141.6 32.2 141.15 32.25 Q 140.7 32.3 139.6 32.55 A 7.835 7.835 0 0 0 138.13 33.035 A 6.889 6.889 0 0 0 137.6 33.3 A 5.012 5.012 0 0 0 136.294 34.332 Q 135.347 35.404 135.302 36.947 A 5.317 5.317 0 0 0 135.3 37.1 A 5.795 5.795 0 0 0 135.359 37.954 Q 135.502 38.917 136 39.45 Q 136.536 40.024 136.896 40.393 A 23.739 23.739 0 0 0 137.1 40.6 A 2.93 2.93 0 0 0 137.373 40.837 Q 137.682 41.077 138.168 41.362 A 14.338 14.338 0 0 0 138.5 41.55 Q 139.323 42.003 139.74 42.218 A 13.097 13.097 0 0 0 139.9 42.3 A 18.031 18.031 0 0 0 140.123 42.409 Q 140.493 42.588 141.221 42.927 A 300.073 300.073 0 0 0 141.7 43.15 A 287.998 287.998 0 0 1 142.265 43.413 Q 142.971 43.743 143.32 43.912 A 16.275 16.275 0 0 1 143.5 44 Q 154.1 49 154.1 57.6 Z M 1 5.8 L 0.6 5.2 A 1.716 1.716 0 0 1 0.19 4.715 A 1.551 1.551 0 0 1 0 3.95 A 1.022 1.022 0 0 1 0.283 3.253 Q 0.429 3.09 0.651 2.944 A 3.291 3.291 0 0 1 1.1 2.7 A 7.804 7.804 0 0 1 2.063 2.222 Q 3.111 1.778 4.731 1.334 A 47.013 47.013 0 0 1 6.45 0.9 Q 9.962 0.079 12.849 0.007 A 22.049 22.049 0 0 1 13.4 0 Q 15.171 0 15.93 0.457 A 1.055 1.055 0 0 1 16.5 1.4 L 16.5 1.7 A 194.808 194.808 0 0 0 15.727 10.133 Q 15.457 13.91 15.276 18.127 A 388.061 388.061 0 0 0 15 27 Q 15 53.566 16.028 64.416 A 64.568 64.568 0 0 0 16.4 67.6 Q 16.4 70 11.8 71.55 Q 7.305 73.065 4.338 73.099 A 11.828 11.828 0 0 1 4.2 73.1 A 15.263 15.263 0 0 1 3.258 73.074 Q 1.2 72.945 1.2 72.2 A 3.101 3.101 0 0 1 1.236 71.752 Q 1.303 71.291 1.5 70.7 Q 3.4 66.5 3.4 36.9 Q 3.4 8.9 1 5.8 Z M 105 68.3 L 106.1 45 A 56.956 56.956 0 0 0 105.989 41.291 Q 105.64 35.974 104.2 33.7 A 5.315 5.315 0 0 0 103.637 32.921 Q 103.25 32.481 102.8 32.2 Q 102.244 32.015 102.203 31.486 A 1.117 1.117 0 0 1 102.2 31.4 A 1.633 1.633 0 0 1 102.65 30.34 Q 103.545 29.293 106.226 28.281 A 29.032 29.032 0 0 1 107.3 27.9 Q 112.4 26.2 114.75 26.2 A 6.96 6.96 0 0 1 115.552 26.242 Q 116.39 26.34 116.803 26.664 A 1.005 1.005 0 0 1 117.2 27.4 Q 117.2 29.271 116.719 37.578 A 1383.124 1383.124 0 0 1 116.65 38.75 Q 116.1 48.1 116.1 58.4 A 141.596 141.596 0 0 0 116.142 61.988 Q 116.325 69.169 117.3 71.2 A 2.227 2.227 0 0 1 117.515 71.669 A 1.741 1.741 0 0 1 117.6 72.2 Q 117.6 73.366 114.542 73.486 A 18.959 18.959 0 0 1 113.8 73.5 Q 110 73.5 106 71.5 Q 105.029 71.014 105.001 68.453 A 14.074 14.074 0 0 1 105 68.3 Z M 113 17.8 L 110.6 17.7 Q 107.9 17.7 107.1 19 A 0.819 0.819 0 0 1 106.965 19.158 A 0.533 0.533 0 0 1 106.6 19.3 A 0.813 0.813 0 0 1 105.908 18.855 Q 105.44 18.114 105.333 16.144 A 23.792 23.792 0 0 1 105.3 14.85 A 22.865 22.865 0 0 1 105.365 13.059 Q 105.58 10.327 106.517 9.33 A 2.066 2.066 0 0 1 106.65 9.2 A 3.789 3.789 0 0 1 107.814 8.517 Q 108.915 8.092 110.599 8.016 A 16.833 16.833 0 0 1 111.35 8 A 15.28 15.28 0 0 1 112.869 8.07 Q 114.995 8.283 115.9 9.15 A 3.338 3.338 0 0 1 116.677 10.34 Q 117.074 11.331 117.098 12.802 A 11.768 11.768 0 0 1 117.1 13 A 12.79 12.79 0 0 1 117.044 14.247 Q 116.875 15.963 116.2 16.75 A 2.556 2.556 0 0 1 115.238 17.43 Q 114.421 17.777 113.17 17.799 A 9.739 9.739 0 0 1 113 17.8 Z" vector-effect="non-scaling-stroke"/></g></svg>